<?xml version="1.0" encoding="UTF-8"?>
<svg version="1.1" xmlns="http://www.w3.org/2000/svg" width="493" height="251">
<path d="M0 0 C1.55806486 -0.00339833 1.55806486 -0.00339833 3.14760578 -0.00686532 C6.59775423 -0.01315108 10.04786285 -0.01237947 13.49801636 -0.0115509 C15.98433991 -0.01454581 18.47066299 -0.0179491 20.95698547 -0.02172852 C26.99242718 -0.02962587 33.02785346 -0.03278174 39.0632989 -0.03334089 C43.97517262 -0.03381782 48.88704315 -0.03588132 53.79891586 -0.03904152 C67.75888133 -0.04783879 81.71883914 -0.05246242 95.67880739 -0.05171105 C96.42980553 -0.05167109 97.18080367 -0.05163113 97.95455933 -0.05158997 C99.08244979 -0.05152864 99.08244979 -0.05152864 100.23312591 -0.05146609 C112.4071244 -0.05106001 124.5810919 -0.06062224 136.75508143 -0.07472833 C149.28848149 -0.08913498 161.82186649 -0.09599615 174.35527503 -0.09513456 C181.37841532 -0.09480403 188.40152314 -0.09748706 195.42465591 -0.10831261 C202.03539952 -0.11843806 208.64608667 -0.11803869 215.25683784 -0.11079597 C217.67176858 -0.10975628 220.08670367 -0.11207612 222.50162697 -0.11815643 C255.6298984 -0.19610985 287.4052821 4.71059752 314.11080933 26.13371277 C314.93065308 26.78533386 314.93065308 26.78533386 315.76705933 27.45011902 C341.3069499 47.91623669 356.70798101 75.83008895 362.11080933 108.13371277 C362.24358276 108.89554871 362.3763562 109.65738464 362.51315308 110.44230652 C366.9530986 141.64356755 357.84479545 175.48025055 339.20040894 200.72087097 C317.41010209 228.78576955 287.49255205 246.65933927 252.11080933 251.13371277 C243.15406035 251.81297378 234.1650857 251.68250197 225.18893433 251.65129089 C222.53864662 251.6567234 219.88840314 251.66371028 217.23812866 251.67253113 C210.83588909 251.69016175 204.43383885 251.68654629 198.03159237 251.67488056 C192.82055568 251.66578483 187.60957143 251.6646485 182.39852905 251.66897583 C181.65211505 251.66958876 180.90570105 251.67020169 180.13666844 251.6708332 C178.61954974 251.67211232 177.10243104 251.67340918 175.58531237 251.67472357 C161.41513265 251.68608407 147.24505706 251.67308724 133.07489443 251.6515221 C120.96051192 251.63365524 108.84628282 251.63676063 96.73190308 251.65519714 C82.60662189 251.67668444 68.48143157 251.68498586 54.35613632 251.67274809 C52.84512076 251.67147412 51.33410519 251.67021663 49.8230896 251.66897583 C49.0799656 251.66835873 48.33684161 251.66774163 47.5711987 251.66710582 C42.37657538 251.66367639 37.1820105 251.66942878 31.98739624 251.67889404 C25.64232086 251.69020333 19.29744296 251.68688915 12.95238972 251.66577107 C9.72542108 251.65537887 6.49884124 251.65314713 3.27186584 251.66436768 C-30.23543301 251.77004763 -59.93148529 244.09279858 -85.88919067 222.13371277 C-86.88305786 221.31515808 -87.87692505 220.49660339 -88.90090942 219.65324402 C-111.98528147 199.70713955 -127.30717934 169.58747257 -129.88919067 139.13371277 C-131.44705371 104.76731447 -124.46336291 73.02294801 -101.88919067 46.13371277 C-101.17118286 45.27648621 -100.45317505 44.41925964 -99.71340942 43.53605652 C-73.91184192 13.88487681 -38.95574783 -0.06359882 0 0 Z M-24.82669067 47.94621277 C-27.06959494 51.07030029 -27.06959494 51.07030029 -27.95169067 54.88371277 C-28.26106567 55.95621277 -28.57044067 57.02871277 -28.88919067 58.13371277 C-30.21463608 58.81592732 -31.54908039 59.48077582 -32.88919067 60.13371277 C-34.60430232 61.95819722 -34.60430232 61.95819722 -36.07669067 64.07121277 C-36.58587036 64.76086121 -37.09505005 65.45050964 -37.61965942 66.16105652 C-40.61095569 70.80907072 -40.25433871 75.80085315 -39.88919067 81.13371277 C-39.03859054 84.11351477 -39.03859054 84.11351477 -37.88919067 86.13371277 C-35.93702633 84.18154842 -35.04092423 82.60171324 -33.88919067 80.13371277 C-32.89919067 80.62871277 -31.90919067 81.12371277 -30.88919067 81.63371277 C-25.70510728 83.86297378 -20.28727279 83.93307347 -14.88919067 82.13371277 C-14.22185419 83.80011135 -13.55533127 85.46683577 -12.88919067 87.13371277 C-12.57586792 87.90400818 -12.26254517 88.67430359 -11.93972778 89.46794128 C-8.58310178 98.14057574 -6.83909128 107.07371023 -5.03738403 116.16081238 C-1.48645653 133.92796052 4.71955663 151.58004952 20.25143433 162.30168152 C22.78867776 164.40729739 23.56702437 165.8683153 24.02877808 169.12980652 C24.14595663 170.60836284 24.23522448 172.0893626 24.29830933 173.57121277 C24.62930356 179.22775598 25.33531944 183.05659712 28.11080933 188.13371277 C27.98580933 190.88371277 27.98580933 190.88371277 27.11080933 193.13371277 C23.90717204 195.26947096 23.09797474 195.38466853 19.42330933 195.32121277 C18.53514526 195.30832214 17.6469812 195.29543152 16.73190308 195.28215027 C14.42170754 195.15131952 12.25943136 194.85141273 9.98580933 194.44621277 C5.05537022 194.04859671 2.55188159 195.03004696 -1.88919067 197.13371277 C-2.21919067 197.79371277 -2.54919067 198.45371277 -2.88919067 199.13371277 C-1.23919067 199.13371277 0.41080933 199.13371277 2.11080933 199.13371277 C2.11080933 199.79371277 2.11080933 200.45371277 2.11080933 201.13371277 C2.77080933 201.13371277 3.43080933 201.13371277 4.11080933 201.13371277 C4.44080933 202.12371277 4.77080933 203.11371277 5.11080933 204.13371277 C5.75018433 203.94808777 6.38955933 203.76246277 7.04830933 203.57121277 C8.06924683 203.35465027 8.06924683 203.35465027 9.11080933 203.13371277 C9.44080933 203.46371277 9.77080933 203.79371277 10.11080933 204.13371277 C14.02616247 203.82048452 16.93067832 203.22044251 20.48580933 201.50871277 C25.06558825 199.77155525 28.38707923 200.24466606 33.11080933 201.13371277 C31.79080933 202.12371277 30.47080933 203.11371277 29.11080933 204.13371277 C37.50221674 205.62696128 43.36160152 204.62610236 51.11080933 201.13371277 C51.11080933 201.79371277 51.11080933 202.45371277 51.11080933 203.13371277 C50.18268433 203.47402527 50.18268433 203.47402527 49.23580933 203.82121277 C46.49670724 205.51301112 46.06056461 207.12615438 45.11080933 210.13371277 C49.25599928 209.814852 52.00465517 208.70696419 55.48580933 206.57121277 C61.04624901 203.32840173 65.05431597 203.48714687 71.36080933 204.82121277 C74.17591512 205.42480885 74.17591512 205.42480885 76.48580933 203.69621277 C77.02205933 203.18058777 77.55830933 202.66496277 78.11080933 202.13371277 C75.26466908 199.28757252 72.30711791 199.677922 68.48580933 199.50871277 C67.42619995 199.45070496 67.42619995 199.45070496 66.34518433 199.39152527 C64.60082408 199.29723553 62.85585242 199.21438386 61.11080933 199.13371277 C60.8212681 194.11499819 61.09057957 192.03581839 64.11080933 188.13371277 C64.47238812 185.08596827 64.47238812 185.08596827 64.29830933 181.88371277 C64.27123901 180.80605652 64.2441687 179.72840027 64.21627808 178.61808777 C64.18147339 177.79824402 64.1466687 176.97840027 64.11080933 176.13371277 C67.50218664 177.4277315 70.86961825 178.77565949 74.23580933 180.13371277 C75.18713745 180.49593933 76.13846558 180.85816589 77.11862183 181.23136902 C83.07093713 183.67016487 86.34621459 185.98200888 89.88082886 191.36808777 C91.43309568 193.59635169 92.99100754 194.60138099 95.48580933 195.63371277 C96.68205933 196.12871277 97.87830933 196.62371277 99.11080933 197.13371277 C99.44080933 196.47371277 99.77080933 195.81371277 100.11080933 195.13371277 C100.89455933 195.31933777 101.67830933 195.50496277 102.48580933 195.69621277 C105.08170708 196.39333543 105.08170708 196.39333543 107.11080933 195.13371277 C107.68830933 195.44308777 108.26580933 195.75246277 108.86080933 196.07121277 C111.71697443 197.4199574 113.99055973 197.2755423 117.11080933 197.13371277 C117.11080933 196.14371277 117.11080933 195.15371277 117.11080933 194.13371277 C116.34768433 193.53558777 115.58455933 192.93746277 114.79830933 192.32121277 C112.11080933 190.13371277 112.11080933 190.13371277 110.79830933 187.38371277 C109.13268901 184.17585142 108.1055701 183.2317538 105.42330933 181.00871277 C101.13769284 176.89420982 99.39530309 172.52340312 97.36080933 167.07121277 C91.04737494 150.19256866 83.13357752 133.70957412 71.11080933 120.13371277 C70.47256226 119.40482849 69.83431519 118.67594421 69.17672729 117.92497253 C62.73427296 110.6549752 55.87618142 103.85914143 48.92721558 97.07707214 C39.95072424 88.21262219 32.22285042 79.56153975 26.98580933 68.00871277 C21.62500851 56.81775613 16.64901813 48.00224737 4.73190308 43.16886902 C-5.53889158 39.68097788 -16.95561405 39.36167598 -24.82669067 47.94621277 Z M207.08029175 71.66325378 C205.42953759 73.31498084 203.75857585 74.9441748 202.0854187 76.57316589 C196.28150939 82.31695632 192.00852558 87.54635319 188.36251831 94.94743347 C186.61316033 98.00292415 184.76488019 98.97745638 181.48580933 100.13371277 C174.7340054 103.07000096 169.98071873 107.31004048 164.82662964 112.43693542 C162.9097634 114.3325274 160.96028198 116.19129779 159.00924683 118.05168152 C148.59405691 127.97039907 148.59405691 127.97039907 141.11080933 140.13371277 C140.79112183 140.76922058 140.47143433 141.40472839 140.14205933 142.05949402 C135.59703519 152.22267299 136.49185975 163.86266524 140.11080933 174.13371277 C141.8444006 177.68321669 143.84247554 180.90452982 146.11080933 184.13371277 C146.97705933 185.46402527 146.97705933 185.46402527 147.86080933 186.82121277 C156.21397427 195.40641008 167.60230578 201.13861625 179.67330933 201.38371277 C196.76485741 201.12975217 207.61962557 192.32561578 219.07125854 180.74967957 C220.85601013 178.95104929 222.66350032 177.1777704 224.47409058 175.40519714 C230.49485817 169.41997667 235.12249378 164.00180814 238.88327026 156.29362488 C240.635322 153.21080831 242.57732154 152.20674209 245.86080933 151.00871277 C251.82095047 148.40024024 255.89739674 145.30005887 260.49655151 140.72892761 C262.48457116 138.7643601 264.50637158 136.83647345 266.52487183 134.90324402 C268.13841372 133.33584072 269.75037827 131.76681213 271.36080933 130.19621277 C272.12989624 129.45725769 272.89898315 128.71830261 273.69137573 127.95695496 C283.59264398 118.15248381 289.32980707 107.78258474 289.54830933 93.75871277 C289.44897675 81.22647991 284.94741239 71.66071171 276.52487183 62.38761902 C266.73552779 53.1951862 255.37284815 50.63404578 242.45065308 50.85636902 C227.57820606 51.50383747 217.03869738 61.66348406 207.08029175 71.66325378 Z " fill="#15BA83" transform="translate(129.88919067382813,-0.1337127685546875)"/>
<path d="M0 0 C5.87094277 4.29684942 9.00554642 9.35437742 10.53515625 16.5 C11.60365087 23.80310887 10.55726852 29.53027884 7 36 C3.23918378 40.83729946 -1.31612779 44.9808959 -5.75 49.1875 C-6.93781574 50.34013201 -8.1240285 51.49441833 -9.30859375 52.65039062 C-12.1876102 55.45300142 -15.08736596 58.23236032 -18 61 C-18.66 60.67 -19.32 60.34 -20 60 C-20.640625 58.06640625 -20.640625 58.06640625 -21.25 55.5625 C-24.71251831 43.4436859 -32.06381196 34.90156336 -42.88671875 28.75 C-45.42558006 27.84896235 -46.54948846 27.90741524 -49 29 C-51.58068686 33.60836939 -53.15787152 37.69308885 -52 43 C-49.89102533 44.71046353 -47.67397766 46.01865009 -45.33203125 47.390625 C-40.88966185 50.45638076 -38.67372048 54.97883856 -37 60 C-36.80137414 62.18204698 -36.68750779 64.37232329 -36.625 66.5625 C-36.57601562 67.71878906 -36.52703125 68.87507813 -36.4765625 70.06640625 C-37.84020905 80.31410828 -44.22119533 86.97696046 -51.39208984 93.93408203 C-52.87996661 95.37982596 -54.34507904 96.84604583 -55.80859375 98.31640625 C-63.42171378 105.8793744 -69.62402032 110.99765769 -80.625 111.375 C-87.90158558 111.29513504 -93.35470483 109.17518311 -98.84765625 104.390625 C-103.78889809 99.0973045 -106.08801515 93.32889733 -106.4375 86.125 C-105.81008928 74.53532984 -99.55784734 67.69412213 -91.55419922 59.99169922 C-89.85719158 58.35785441 -88.18326997 56.70281375 -86.51171875 55.04296875 C-85.44395796 53.99351872 -84.37499115 52.94529402 -83.3046875 51.8984375 C-82.55153763 51.15803726 -82.55153763 51.15803726 -81.78317261 50.40267944 C-78.23462145 47 -78.23462145 47 -76 47 C-75.56300781 48.25103516 -75.56300781 48.25103516 -75.1171875 49.52734375 C-70.63213514 61.84008185 -65.21752016 71.10109375 -53.75 77.9375 C-50.86948776 79.24026619 -50.86948776 79.24026619 -47 79 C-44.18467181 73.95859836 -42.4811491 69.77378925 -42 64 C-43.2684375 63.7215625 -43.2684375 63.7215625 -44.5625 63.4375 C-50.21059672 61.07556865 -53.75430783 57.07615361 -56.875 51.875 C-59.72321679 44.59622376 -59.79385324 37.69870873 -57.05639648 30.37133789 C-53.63568777 22.69272828 -47.03601627 16.67083745 -41.1875 10.8125 C-40.43146484 10.03197266 -39.67542969 9.25144531 -38.89648438 8.44726562 C-27.41347186 -3.09448352 -15.34357403 -7.67178702 0 0 Z " fill="#25BF8C" transform="translate(391,72)"/>
<path d="M0 0 C2.65214338 2.34553721 3.92178462 4.66622242 5.375 7.875 C6.89977495 11.07330844 8.22108818 13.51596727 10.875 15.875 C11.57625 16.57625 12.2775 17.2775 13 18 C13 20.59946644 12.34167804 21.57631923 10.73046875 23.57421875 C8.54488594 25.37498111 7.11127027 25.48469056 4.3125 25.6875 C3.10013672 25.78611328 3.10013672 25.78611328 1.86328125 25.88671875 C0.94095703 25.94279297 0.94095703 25.94279297 0 26 C-0.33 24.68 -0.66 23.36 -1 22 C-2.11375 22.20625 -3.2275 22.4125 -4.375 22.625 C-5.57125 22.74875 -6.7675 22.8725 -8 23 C-8.66 22.34 -9.32 21.68 -10 21 C-10 19.68 -10 18.36 -10 17 C-9.236875 16.814375 -8.47375 16.62875 -7.6875 16.4375 C-3.99659046 14.46329257 -3.17995784 11.81273877 -2 8 C-1.2579626 5.34257857 -0.61392365 2.69181906 0 0 Z " fill="#4ACA9F" transform="translate(172,174)"/>
</svg>
